<svg width="49" height="49" viewBox="0 0 49 49" fill="none" xmlns="http://www.w3.org/2000/svg">
<g clip-path="url(#clip0_4_54)">
<path d="M24.5 0C18.0037 0 11.7677 2.58284 7.17773 7.17582C2.58308 11.7706 0.00127274 18.0021 0 24.5C0 30.9952 2.58398 37.2312 7.17773 41.8242C11.7677 46.4172 18.0037 49 24.5 49C30.9963 49 37.2323 46.4172 41.8223 41.8242C46.416 37.2312 49 30.9952 49 24.5C49 18.0048 46.416 11.7688 41.8223 7.17582C37.2323 2.58284 30.9963 0 24.5 0Z" fill="url(#paint0_linear_4_54)"/>
<path d="M11.0901 24.2412C18.2333 21.1297 22.9955 19.0782 25.3766 18.0871C32.183 15.257 33.5956 14.7655 34.5182 14.7488C34.7211 14.7455 35.1728 14.7957 35.4676 15.034C35.7126 15.235 35.7815 15.5068 35.8159 15.6976C35.8465 15.8882 35.8886 16.3227 35.8542 16.6619C35.4867 20.536 33.8904 29.9371 33.0788 34.2763C32.7381 36.1122 32.0605 36.7278 31.4059 36.7879C29.9819 36.9188 28.9023 35.8477 27.5242 34.9446C25.369 33.5309 24.1516 32.6512 22.0576 31.2719C19.6383 29.6779 21.2078 28.8017 22.5859 27.3699C22.9458 26.9952 29.2162 21.2932 29.3349 20.776C29.3502 20.7113 29.3655 20.4701 29.2201 20.343C29.0784 20.2156 28.8679 20.2592 28.7147 20.2936C28.4965 20.3426 25.0551 22.6196 18.3788 27.1242C17.4026 27.7956 16.5183 28.1229 15.7221 28.1057C14.8493 28.0869 13.1649 27.6111 11.9131 27.2046C10.3819 26.7058 9.16069 26.442 9.26788 25.5948C9.32147 25.1538 9.93014 24.7025 11.0901 24.2412Z" fill="white"/>
</g>
<defs>
<linearGradient id="paint0_linear_4_54" x1="2450" y1="0" x2="2450" y2="4900" gradientUnits="userSpaceOnUse">
<stop stop-color="#2AABEE"/>
<stop offset="1" stop-color="#229ED9"/>
</linearGradient>
<clipPath id="clip0_4_54">
<rect width="49" height="49" fill="white"/>
</clipPath>
</defs>
</svg>
