<svg width="49" height="49" viewBox="0 0 49 49" fill="none" xmlns="http://www.w3.org/2000/svg">
<rect width="49" height="49" rx="24.5" fill="#1B9DF0"/>
<path d="M40.8285 15.3725C39.6264 15.919 38.3305 16.2781 36.9878 16.4498C38.3617 15.6224 39.4234 14.3109 39.923 12.734C38.6271 13.5146 37.1908 14.0611 35.6763 14.3733C34.4429 13.0306 32.7099 12.25 30.7427 12.25C27.0737 12.25 24.0761 15.2476 24.0761 18.9479C24.0761 19.4787 24.1385 19.9939 24.2478 20.4779C18.6897 20.1969 13.7404 17.5271 10.4461 13.4834C9.86848 14.467 9.54061 15.6224 9.54061 16.8401C9.54061 19.1664 10.7116 21.2273 12.5226 22.3983C11.4141 22.3983 10.3837 22.086 9.47816 21.6176V21.6645C9.47816 24.9119 11.7888 27.6286 14.8489 28.2375C13.8665 28.5063 12.835 28.5437 11.8357 28.3467C12.2597 29.6777 13.0902 30.8423 14.2104 31.6768C15.3306 32.5114 16.6841 32.9739 18.0808 32.9993C15.7133 34.8736 12.7787 35.8866 9.75919 35.8721C9.22835 35.8721 8.69752 35.8409 8.16669 35.7784C11.1331 37.6832 14.6616 38.7917 18.4399 38.7917C30.7427 38.7917 37.503 28.5809 37.503 19.7285C37.503 19.4319 37.503 19.1508 37.4874 18.8542C38.7989 17.9174 39.923 16.7309 40.8285 15.3725Z" fill="white"/>
</svg>
